<svg width="1000" height="1000" viewBox="0 0 1000 1000" xmlns="http://www.w3.org/2000/svg"><defs/><path fill="#ec4196" transform="matrix(0.3368800684543287 0 0 0.3368800684543287 33.81911650882924 23.752752443765743)" d="M 703.07312955091 1267.1996876703 C 728.57312955091 1301.5996876703 743.67312955091 1344.2996876703 743.67312955091 1390.3996876703 C 743.67312955091 1412.3996876703 740.27312955091 1433.5996876703 733.87312955091 1453.4996876703 C 736.57312955091 1440.5996876703 737.97312955091 1427.2996876703 737.97312955091 1413.5996876703 C 737.87312955091 1305.1996876703 649.87312955091 1217.1996876703 541.37312955091 1217.1996876703 C 432.87312955091 1217.1996876703 344.87312955091 1305.1996876703 344.87312955091 1413.6996876703 C 344.87312955091 1522.1996876703 432.87312955091 1610.1996876703 541.37312955091 1610.1996876703 C 542.07312955091 1610.1996876703 542.77312955091 1610.1996876703 543.57312955091 1610.1996876703 C 544.47312955091 1610.1996876703 545.37312955091 1610.1996876703 546.27312955091 1610.1996876703 C 660.77312955091 1610.1996876703 753.57312955091 1517.3996876703 753.57312955091 1402.8996876703 C 753.57312955091 1350.9996876703 734.47312955091 1303.5996876703 703.07312955091 1267.1996876703 Z M 449.77312955091 1556.7996876703 C 449.87312955091 1556.3996876703 469.77312955091 1408.5996876703 469.77312955091 1408.5996876703 L 473.77312955091 1389.6996876703 L 476.17312955091 1320.6996876703 L 471.37312955091 1388.9996876703 L 459.77312955091 1432.1996876703 L 423.87312955091 1420.5996876703 C 440.67312955091 1351.8996876703 466.57312955091 1266.3996876703 466.57312955091 1266.3996876703 L 492.57312955091 1253.5996876703 C 492.57312955091 1253.5996876703 507.37312955091 1285.4996876703 541.27312955091 1285.4996876703 C 575.17312955091 1285.4996876703 587.97312955091 1253.5996876703 587.97312955091 1253.5996876703 L 614.77312955091 1264.7996876703 C 614.77312955091 1264.7996876703 642.17312955091 1351.8996876703 658.87312955091 1420.5996876703 L 622.97312955091 1432.1996876703 L 611.37312955091 1391.4996876703 L 606.57312955091 1320.7996876703 L 607.97312955091 1391.4996876703 C 607.97312955091 1391.4996876703 620.17312955091 1461.8996876703 623.67312955091 1487.9996876703 C 626.77312955091 1510.8996876703 629.47312955091 1533.9996876703 632.97312955091 1556.7996876703 C 627.37312955091 1557.9996876703 620.67312955091 1559.1996876703 615.07312955091 1556.7996876703 C 611.17312955091 1555.0996876703 607.97312955091 1552.5996876703 604.37312955091 1550.3996876703 C 598.47312955091 1546.7996876703 589.77312955091 1543.1996876703 581.97312955091 1542.7996876703 C 577.27312955091 1485.2996876703 572.87312955091 1345.6996876703 572.87312955091 1345.6996876703 C 571.97312955091 1397.5996876703 572.67312955091 1518.5996876703 572.87312955091 1545.3996876703 C 571.27312955091 1548.0996876703 572.27312955091 1552.1996876703 567.77312955091 1553.5996876703 C 554.47312955091 1557.6996876703 546.87312955091 1544.9996876703 533.97312955091 1546.1996876703 C 525.47312955091 1546.9996876703 508.47312955091 1558.0996876703 500.77312955091 1550.0996876703 C 499.67312955091 1548.8996876703 499.17312955091 1547.6996876703 498.77312955091 1546.5996876703 C 507.37312955091 1439.4996876703 500.17312955091 1338.2996876703 500.17312955091 1338.2996876703 C 497.27312955091 1442.3996876703 492.97312955091 1515.3996876703 491.27312955091 1541.5996876703 C 480.87312955091 1541.7996876703 477.07312955091 1553.4996876703 466.97312955091 1556.4996876703 C 466.07312955091 1556.6996876703 449.57312955091 1558.4996876703 449.77312955091 1556.7996876703 Z M 461.37312955091 1561.9996876703 C 459.37312955091 1561.5996876703 457.47312955091 1561.0996876703 455.57312955091 1560.4996876703 C 453.67312955091 1559.8996876703 451.77312955091 1559.1996876703 449.97312955091 1558.2996876703 L 450.07312955091 1558.0996876703 C 457.57312955091 1560.5996876703 465.47312955091 1561.0996876703 473.27312955091 1561.1996876703 C 477.17312955091 1561.2996876703 481.17312955091 1561.1996876703 485.17312955091 1561.2996876703 C 489.37312955091 1561.4996876703 493.37312955091 1562.6996876703 497.17312955091 1564.1996876703 C 500.97312955091 1565.6996876703 504.47312955091 1567.2996876703 508.07312955091 1568.1996876703 C 509.87312955091 1568.6996876703 511.67312955091 1568.8996876703 513.47312955091 1568.8996876703 C 514.37312955091 1568.8996876703 515.27312955091 1568.8996876703 516.17312955091 1568.7996876703 C 516.67312955091 1568.6996876703 517.07312955091 1568.6996876703 517.47312955091 1568.5996876703 L 518.97312955091 1568.3996876703 C 526.87312955091 1567.1996876703 534.97312955091 1566.3996876703 543.07312955091 1567.0996876703 C 547.07312955091 1567.3996876703 551.07312955091 1567.9996876703 554.97312955091 1568.7996876703 L 556.47312955091 1569.0996876703 L 556.77312955091 1569.1996876703 L 557.17312955091 1569.2996876703 L 557.87312955091 1569.3996876703 C 558.77312955091 1569.4996876703 559.77312955091 1569.5996876703 560.67312955091 1569.6996876703 C 562.47312955091 1569.7996876703 564.17312955091 1569.6996876703 565.67312955091 1569.0996876703 C 567.27312955091 1568.4996876703 568.77312955091 1567.4996876703 570.47312955091 1566.4996876703 L 572.97312955091 1564.8996876703 L 575.47312955091 1563.3996876703 C 577.27312955091 1562.2996876703 579.07312955091 1561.2996876703 581.17312955091 1560.5996876703 C 583.27312955091 1559.8996876703 585.57312955091 1559.6996876703 587.67312955091 1559.8996876703 C 589.77312955091 1560.0996876703 591.77312955091 1560.4996876703 593.67312955091 1560.7996876703 L 596.57312955091 1561.2996876703 L 597.27312955091 1561.3996876703 L 597.67312955091 1561.4996876703 L 597.97312955091 1561.4996876703 L 599.47312955091 1561.6996876703 C 603.47312955091 1562.1996876703 607.27312955091 1562.7996876703 611.17312955091 1563.2996876703 C 615.07312955091 1563.7996876703 618.97312955091 1564.0996876703 622.87312955091 1563.8996876703 C 624.77312955091 1563.7996876703 626.77312955091 1563.5996876703 628.57312955091 1563.0996876703 C 630.37312955091 1562.5996876703 632.27312955091 1561.6996876703 633.37312955091 1560.0996876703 L 633.57312955091 1560.1996876703 C 632.57312955091 1561.9996876703 630.67312955091 1563.0996876703 628.87312955091 1563.7996876703 C 626.97312955091 1564.4996876703 624.97312955091 1564.8996876703 622.97312955091 1565.1996876703 C 618.97312955091 1565.6996876703 614.97312955091 1565.5996876703 610.97312955091 1565.3996876703 C 606.97312955091 1565.1996876703 603.07312955091 1564.7996876703 599.17312955091 1564.4996876703 C 595.17312955091 1564.3996876703 591.17312955091 1563.3996876703 587.47312955091 1563.1996876703 C 585.67312955091 1563.0996876703 583.97312955091 1563.3996876703 582.27312955091 1563.9996876703 C 580.57312955091 1564.5996876703 578.97312955091 1565.4996876703 577.47312955091 1566.4996876703 L 574.97312955091 1568.0996876703 L 572.57312955091 1569.6996876703 C 570.97312955091 1570.7996876703 569.17312955091 1571.9996876703 567.07312955091 1572.8996876703 C 564.97312955091 1573.7996876703 562.57312955091 1573.9996876703 560.47312955091 1573.8996876703 C 559.37312955091 1573.8996876703 558.37312955091 1573.6996876703 557.37312955091 1573.5996876703 L 556.57312955091 1573.4996876703 L 556.17312955091 1573.3996876703 L 555.77312955091 1573.2996876703 L 554.37312955091 1572.9996876703 C 550.57312955091 1572.2996876703 546.67312955091 1571.7996876703 542.87312955091 1571.4996876703 C 539.07312955091 1571.1996876703 535.17312955091 1571.1996876703 531.37312955091 1571.3996876703 C 527.47312955091 1571.5996876703 523.67312955091 1572.0996876703 519.77312955091 1572.5996876703 L 518.27312955091 1572.7996876703 C 517.77312955091 1572.8996876703 517.17312955091 1572.8996876703 516.67312955091 1572.9996876703 C 515.57312955091 1573.0996876703 514.57312955091 1573.0996876703 513.47312955091 1573.0996876703 C 511.37312955091 1572.9996876703 509.17312955091 1572.5996876703 507.17312955091 1572.0996876703 C 503.07312955091 1570.9996876703 499.47312955091 1569.0996876703 495.97312955091 1567.5996876703 C 492.47312955091 1565.9996876703 488.87312955091 1564.7996876703 485.17312955091 1564.4996876703 C 481.27312955091 1564.1996876703 477.37312955091 1563.9996876703 473.37312955091 1563.6996876703 C 469.27312955091 1563.1996876703 465.27312955091 1562.7996876703 461.37312955091 1561.9996876703 Z"/><path id="text" fill="#ec4196" transform="matrix(0.8920457828168876 0 0 0.8920457828168876 223.65107866370616 61.50630901571002)" d="M 177.41285087895 520.7916255605 C 176.58085087895 521.6876255605 175.26885087895 522.5996255605 173.47685087895 523.5276255605 C 171.68485087895 524.4556255605 169.62085087895 525.3036255605 167.28485087895 526.0716255605 C 164.94885087895 526.8396255605 162.56485087895 527.4636255605 160.13285087895 527.9436255605 C 157.70085087895 528.4236255605 155.39685087895 528.6636255605 153.22085087895 528.6636255605 C 145.60485087895 528.6636255605 138.98085087895 527.1916255605 133.34885087895 524.2476255605 C 127.71685087895 521.3036255605 123.38085087895 517.2716255605 120.34085087895 512.1516255605 C 117.30085087895 507.0316255605 115.78085087895 501.1756255605 115.78085087895 494.5836255605 C 115.78085087895 488.1196255605 116.75685087895 482.5036255605 118.70885087895 477.7356255605 C 120.66085087895 472.9676255605 123.31685087895 468.9996255605 126.67685087895 465.8316255605 C 130.03685087895 462.6636255605 133.90885087895 460.3116255605 138.29285087895 458.7756255605 C 142.67685087895 457.2396255605 147.26885087895 456.4716255605 152.06885087895 456.4716255605 C 156.61285087895 456.4716255605 160.77285087895 456.9676255605 164.54885087895 457.9596255605 C 168.32485087895 458.9516255605 171.52485087895 460.1836255605 174.14885087895 461.6556255605 L 169.63685087895 474.6156255605 C 168.48485087895 473.9756255605 166.94885087895 473.3356255605 165.02885087895 472.6956255605 C 163.10885087895 472.0556255605 161.15685087895 471.5276255605 159.17285087895 471.1116255605 C 157.18885087895 470.6956255605 155.42885087895 470.4876255605 153.89285087895 470.4876255605 C 146.27685087895 470.4876255605 140.42085087895 472.3916255605 136.32485087895 476.1996255605 C 132.22885087895 480.0076255605 130.18085087895 485.7196255605 130.18085087895 493.3356255605 C 130.18085087895 497.7516255605 131.17285087895 501.5596255605 133.15685087895 504.7596255605 C 135.14085087895 507.9596255605 137.90885087895 510.4236255605 141.46085087895 512.1516255605 C 145.01285087895 513.8796255605 149.06085087895 514.7436255605 153.60485087895 514.7436255605 C 155.58885087895 514.7436255605 157.41285087895 514.5996255605 159.07685087895 514.3116255605 C 160.74085087895 514.0236255605 162.14885087895 513.5596255605 163.30085087895 512.9196255605 L 163.30085087895 504.3756255605 L 151.10885087895 504.3756255605 L 151.10885087895 490.9356255605 L 177.41285087895 490.9356255605 L 177.41285087895 520.7916255605 Z M 193.25285087895 457.2396255605 L 241.44485087895 457.2396255605 L 241.44485087895 470.6796255605 L 207.17285087895 470.6796255605 L 207.17285087895 485.7516255605 L 237.50885087895 485.7516255605 L 237.50885087895 499.1916255605 L 207.17285087895 499.1916255605 L 207.17285087895 514.4556255605 L 242.78885087895 514.4556255605 L 242.78885087895 527.8956255605 L 193.25285087895 527.8956255605 L 193.25285087895 457.2396255605 Z M 278.59685087895 457.2396255605 C 287.49285087895 457.2396255605 294.32485087895 459.3996255605 299.09285087895 463.7196255605 C 303.86085087895 468.0396255605 306.24485087895 473.8156255605 306.24485087895 481.0476255605 C 306.24485087895 485.0796255605 305.39685087895 489.0476255605 303.70085087895 492.9516255605 C 302.00485087895 496.8556255605 299.14085087895 499.9596255605 295.10885087895 502.2636255605 L 311.52485087895 527.8956255605 L 295.30085087895 527.8956255605 L 280.42085087895 505.4316255605 L 271.10885087895 505.4316255605 L 271.10885087895 527.8956255605 L 257.18885087895 527.8956255605 L 257.18885087895 457.2396255605 L 278.59685087895 457.2396255605 Z M 280.99685087895 491.9916255605 C 283.81285087895 491.9916255605 286.00485087895 491.3996255605 287.57285087895 490.2156255605 C 289.14085087895 489.0316255605 290.24485087895 487.6236255605 290.88485087895 485.9916255605 C 291.52485087895 484.3596255605 291.84485087895 482.8716255605 291.84485087895 481.5276255605 C 291.84485087895 480.7596255605 291.73285087895 479.7836255605 291.50885087895 478.5996255605 C 291.28485087895 477.4156255605 290.82085087895 476.2156255605 290.11685087895 474.9996255605 C 289.41285087895 473.7836255605 288.34085087895 472.7596255605 286.90085087895 471.9276255605 C 285.46085087895 471.0956255605 283.52485087895 470.6796255605 281.09285087895 470.6796255605 L 271.10885087895 470.6796255605 L 271.10885087895 491.9916255605 L 280.99685087895 491.9916255605 Z M 315.07685087895 527.8956255605 L 346.94885087895 454.4556255605 L 347.71685087895 454.4556255605 L 379.58885087895 527.8956255605 L 363.46085087895 527.8956255605 L 357.98885087895 514.0716255605 L 334.56485087895 514.0716255605 L 328.80485087895 527.8956255605 L 315.07685087895 527.8956255605 Z M 339.46085087895 502.3596255605 L 353.38085087895 502.3596255605 L 346.56485087895 485.1756255605 L 339.46085087895 502.3596255605 Z M 389.86085087895 457.2396255605 L 403.78085087895 457.2396255605 L 403.78085087895 527.8956255605 L 389.86085087895 527.8956255605 L 389.86085087895 457.2396255605 Z M 445.25285087895 527.8956255605 L 477.12485087895 454.4556255605 L 477.89285087895 454.4556255605 L 509.76485087895 527.8956255605 L 493.63685087895 527.8956255605 L 488.16485087895 514.0716255605 L 464.74085087895 514.0716255605 L 458.98085087895 527.8956255605 L 445.25285087895 527.8956255605 Z M 469.63685087895 502.3596255605 L 483.55685087895 502.3596255605 L 476.74085087895 485.1756255605 L 469.63685087895 502.3596255605 Z M 528.77285087895 505.9116255605 L 502.75685087895 457.2396255605 L 519.94085087895 457.2396255605 L 536.16485087895 489.8796255605 L 552.00485087895 457.2396255605 L 569.18885087895 457.2396255605 L 542.69285087895 505.9116255605 L 542.69285087895 527.8956255605 L 528.77285087895 527.8956255605 L 528.77285087895 505.9116255605 Z M 601.15685087895 457.2396255605 C 610.05285087895 457.2396255605 616.88485087895 459.3996255605 621.65285087895 463.7196255605 C 626.42085087895 468.0396255605 628.80485087895 473.8156255605 628.80485087895 481.0476255605 C 628.80485087895 485.0796255605 627.95685087895 489.0476255605 626.26085087895 492.9516255605 C 624.56485087895 496.8556255605 621.70085087895 499.9596255605 617.66885087895 502.2636255605 L 634.08485087895 527.8956255605 L 617.86085087895 527.8956255605 L 602.98085087895 505.4316255605 L 593.66885087895 505.4316255605 L 593.66885087895 527.8956255605 L 579.74885087895 527.8956255605 L 579.74885087895 457.2396255605 L 601.15685087895 457.2396255605 Z M 603.55685087895 491.9916255605 C 606.37285087895 491.9916255605 608.56485087895 491.3996255605 610.13285087895 490.2156255605 C 611.70085087895 489.0316255605 612.80485087895 487.6236255605 613.44485087895 485.9916255605 C 614.08485087895 484.3596255605 614.40485087895 482.8716255605 614.40485087895 481.5276255605 C 614.40485087895 480.7596255605 614.29285087895 479.7836255605 614.06885087895 478.5996255605 C 613.84485087895 477.4156255605 613.38085087895 476.2156255605 612.67685087895 474.9996255605 C 611.97285087895 473.7836255605 610.90085087895 472.7596255605 609.46085087895 471.9276255605 C 608.02085087895 471.0956255605 606.08485087895 470.6796255605 603.65285087895 470.6796255605 L 593.66885087895 470.6796255605 L 593.66885087895 491.9916255605 L 603.55685087895 491.9916255605 Z M 637.63685087895 527.8956255605 L 669.50885087895 454.4556255605 L 670.27685087895 454.4556255605 L 702.14885087895 527.8956255605 L 686.02085087895 527.8956255605 L 680.54885087895 514.0716255605 L 657.12485087895 514.0716255605 L 651.36485087895 527.8956255605 L 637.63685087895 527.8956255605 Z M 662.02085087895 502.3596255605 L 675.94085087895 502.3596255605 L 669.12485087895 485.1756255605 L 662.02085087895 502.3596255605 Z"/></svg>